<svg width="22" height="24" viewBox="0 0 22 24" fill="none" xmlns="http://www.w3.org/2000/svg">
<path d="M17.778 10.999H19.5558C19.5558 5.869 16.1131 2 11.5469 2V4C15.1575 4 17.778 6.943 17.778 10.999Z" fill="white"/>
<path d="M11.5552 8.00024C13.4245 8.00024 14.2218 8.89724 14.2218 11.0002H15.9996C15.9996 7.77524 14.4218 6.00024 11.5552 6.00024V8.00024ZM14.5969 13.4432C14.4261 13.2686 14.2017 13.1754 13.971 13.1835C13.7403 13.1915 13.5214 13.3001 13.3605 13.4862L11.2334 15.9472C10.7214 15.8372 9.69205 15.4762 8.63249 14.2872C7.57293 13.0942 7.25205 11.9332 7.15693 11.3612L9.34271 8.96724C9.50841 8.78637 9.60505 8.54006 9.61219 8.28045C9.61932 8.02083 9.53639 7.76828 9.38093 7.57624L6.09649 3.51324C5.94097 3.3206 5.72483 3.20374 5.49396 3.1875C5.26309 3.17125 5.03569 3.2569 4.86004 3.42624L2.93116 5.28724C2.77748 5.46075 2.68575 5.69169 2.67338 5.93624C2.66004 6.18624 2.40582 12.1082 6.4876 16.7022C10.0485 20.7072 14.5089 21.0002 15.7374 21.0002C15.9169 21.0002 16.0272 20.9942 16.0565 20.9922C16.2738 20.9786 16.479 20.8749 16.6325 20.7012L18.2858 18.5302C18.4365 18.3328 18.5127 18.077 18.4985 17.8173C18.4842 17.5576 18.3805 17.3143 18.2094 17.1392L14.5969 13.4432Z" fill="white"/>
</svg>
