<svg width="24" height="24" viewBox="0 0 24 24" fill="none" xmlns="http://www.w3.org/2000/svg">
<path d="M20.4696 1.99999H3.52957C3.33915 1.99734 3.15007 2.03223 2.97314 2.10267C2.7962 2.17311 2.63487 2.27771 2.49837 2.4105C2.36186 2.54329 2.25285 2.70167 2.17756 2.8766C2.10227 3.05152 2.06218 3.23957 2.05957 3.42999V20.57C2.06218 20.7604 2.10227 20.9485 2.17756 21.1234C2.25285 21.2983 2.36186 21.4567 2.49837 21.5895C2.63487 21.7223 2.7962 21.8269 2.97314 21.8973C3.15007 21.9677 3.33915 22.0026 3.52957 22H20.4696C20.66 22.0026 20.8491 21.9677 21.026 21.8973C21.2029 21.8269 21.3643 21.7223 21.5008 21.5895C21.6373 21.4567 21.7463 21.2983 21.8216 21.1234C21.8969 20.9485 21.937 20.7604 21.9396 20.57V3.42999C21.937 3.23957 21.8969 3.05152 21.8216 2.8766C21.7463 2.70167 21.6373 2.54329 21.5008 2.4105C21.3643 2.27771 21.2029 2.17311 21.026 2.10267C20.8491 2.03223 20.66 1.99734 20.4696 1.99999ZM8.08957 18.74H5.08957V9.73999H8.08957V18.74ZM6.58957 8.47999C6.17583 8.47999 5.77904 8.31563 5.48648 8.02307C5.19393 7.73052 5.02957 7.33372 5.02957 6.91999C5.02957 6.50625 5.19393 6.10946 5.48648 5.8169C5.77904 5.52434 6.17583 5.35999 6.58957 5.35999C6.80927 5.33507 7.03175 5.35684 7.24245 5.42387C7.45314 5.4909 7.64731 5.60168 7.81223 5.74895C7.97715 5.89622 8.1091 6.07667 8.19944 6.27847C8.28979 6.48027 8.33649 6.69888 8.33649 6.91999C8.33649 7.14109 8.28979 7.3597 8.19944 7.5615C8.1091 7.76331 7.97715 7.94375 7.81223 8.09103C7.64731 8.2383 7.45314 8.34907 7.24245 8.4161C7.03175 8.48313 6.80927 8.5049 6.58957 8.47999ZM18.9096 18.74H15.9096V13.91C15.9096 12.7 15.4796 11.91 14.3896 11.91C14.0522 11.9125 13.7238 12.0183 13.4484 12.2132C13.1731 12.4081 12.9641 12.6827 12.8496 13C12.7713 13.235 12.7374 13.4826 12.7496 13.73V18.73H9.74957C9.74957 18.73 9.74957 10.55 9.74957 9.72999H12.7496V11C13.0221 10.5271 13.4185 10.1375 13.896 9.87319C14.3735 9.60887 14.9141 9.47984 15.4596 9.49999C17.4596 9.49999 18.9096 10.79 18.9096 13.56V18.74Z" fill="#4A71FB"/>
</svg>
