<svg width="22" height="24" viewBox="0 0 22 24" fill="none" xmlns="http://www.w3.org/2000/svg">
<path d="M10.6673 1.5C8.72311 1.50258 6.85918 2.3726 5.48441 3.91922C4.10964 5.46584 3.33629 7.56276 3.33399 9.75C3.33166 11.5374 3.85065 13.2763 4.81133 14.7C4.81133 14.7 5.01133 14.9963 5.04399 15.039L10.6673 22.5L16.2933 15.0353C16.3227 14.9955 16.5233 14.7 16.5233 14.7L16.524 14.6978C17.4842 13.2747 18.0029 11.5366 18.0007 9.75C17.9984 7.56276 17.225 5.46584 15.8502 3.91922C14.4755 2.3726 12.6115 1.50258 10.6673 1.5ZM10.6673 12.75C10.1399 12.75 9.62434 12.5741 9.18581 12.2444C8.74727 11.9148 8.40548 11.4462 8.20365 10.8981C8.00181 10.3499 7.949 9.74667 8.0519 9.16473C8.15479 8.58279 8.40877 8.04824 8.78171 7.62868C9.15465 7.20912 9.6298 6.9234 10.1471 6.80764C10.6644 6.69189 11.2005 6.7513 11.6878 6.97836C12.1751 7.20542 12.5916 7.58994 12.8846 8.08329C13.1776 8.57664 13.334 9.15666 13.334 9.75C13.3331 10.5453 13.0519 11.3078 12.552 11.8702C12.0521 12.4326 11.3743 12.749 10.6673 12.75Z" fill="white"/>
</svg>
